{"title":"Song of the South   (Family Film 1946)   Ruth Warrick, Bobby Dri","uid":9332079,"size":757765303,"categoryP":"video","categoryS":"movies","magnet":"?xt=urn:btih:610e03095e267aac0c4ce9fe02d7dec0ac34efbb&amp;dn=Song+of+the+South+++%28Family+Film+1946%29+++Ruth+Warrick%2C+Bobby+Dri&amp;tr=udp%3A%2F%2Ftracker.openbittorrent.com%3A80&amp;tr=udp%3A%2F%2Fopen.demonii.com%3A1337&amp;tr=udp%3A%2F%2Ftracker.coppersurfer.tk%3A6969&amp;tr=udp%3A%2F%2Fexodus.desync.com%3A6969","seeders":0,"leechers":1,"uploader":"BurtonW","files":1,"time":1386786562,"description":" &lt;a href=&quot;http://www.imdb.com/title/tt0038969/?ref_=nv_sr_1&quot; rel=&quot;nofollow&quot; target=&quot;_NEW&quot;&gt;http://www.imdb.com/title/tt0038969/?ref_=nv_sr_1&lt;/a&gt;\n\n\nA good quality family film.\n\n\nNo subtitles!\n\n\nStoryline:\n\nUncle Remus draws upon his tales of Brer Rabbit to help little Johnny deal his confusion over his parents' separation as well as his new life on the plantation. The tales: The Briar Patch, The Tar Baby and Brer Rabbit's Laughing place.\n\n\nTechnical info:\n\n\nGeneral:\n\nComplete name:                  : Song of the South   (Family Film 1946)   Ruth Warrick, Bobby Driscoll &amp; James Baskett.mp4\n\nFormat                         : MPEG-4\nFormat profile                 : Base Media / Version 2\nCodec ID                       : mp42\nFile size                      : 723 MiB\nDuration                       : 1h 34mn\nOverall bit rate mode          : Variable\nOverall bit rate               : 1 070 Kbps\nEncoded date                   : UTC 2013-09-07 04:07:22\nTagged date                    : UTC 2013-09-07 07:03:48\n\n\nVideo:\n\nID                             : 1\nFormat                         : AVC\nFormat/Info                    : Advanced Video Codec\nFormat profile                 : &lt;a class=&quot;__cf_email__&quot; href=&quot;/cdn-cgi/l/email-protection&quot; data-cfemail=&quot;3c715d55527c7008120c&quot;&gt;[email&amp;#160;protected]&lt;/a&gt;&lt;script data-cfhash='f9e31' type=&quot;text/javascript&quot;&gt;\n/* &lt;![CDATA[ */!function(){try{var t=&quot;currentScript&quot;in document?document.currentScript:function(){for(var t=document.getElementsByTagName(&quot;script&quot;),e=t.length;e--;)if(t[e].getAttribute(&quot;data-cfhash&quot;))return t[e]}();if(t&amp;&amp;t.previousSibling){var e,r,n,i,c=t.previousSibling,a=c.getAttribute(&quot;data-cfemail&quot;);if(a){for(e=&quot;&quot;,r=parseInt(a.substr(0,2),16),n=2;a.length-n;n+=2)i=parseInt(a.substr(n,2),16)^r,e+=String.fromCharCode(i);e=document.createTextNode(e),c.parentNode.replaceChild(e,c)}t.parentNode.removeChild(t);}}catch(u){}}()/* ]]&gt; */&lt;/script&gt;\nFormat settings, CABAC         : Yes\nFormat settings, ReFrames      : 8 frames\nCodec ID                       : avc1\nCodec ID/Info                  : Advanced Video Coding\nDuration                       : 1h 34mn\nBit rate mode                  : Variable\nBit rate                       : 900 Kbps\nWidth                          : 640 pixels\nHeight                         : 480 pixels\nDisplay aspect ratio           : 4:3\nFrame rate mode                : Variable\nFrame rate                     : 23.976 fps\nMinimum frame rate             : 23.974 fps\nMaximum frame rate             : 90 000.000 fps\nColor space                    : YUV\nChroma subsampling             : 4:2:0\nBit depth                      : 8 bits\nScan type                      : Progressive\nBits/(Pixel*Frame)             : 0.122\nStream size                    : 611 MiB (85%)\nWriting library                : x264 core 130 r2273 b3065e6\nEncoding settings              : Deleted\nEncoded date                   : UTC 2013-09-07 04:07:22\nTagged date                    : UTC 2013-09-07 07:03:48\nColor primaries                : BT.601 NTSC\nTransfer characteristics       : BT.709\nMatrix coefficients            : BT.601\n\nAudio:\n\nID                             : 2\nFormat                         : AAC\nFormat/Info                    : Advanced Audio Codec\nFormat profile                 : LC\nCodec ID                       : 40\nDuration                       : 1h 34mn\nBit rate mode                  : Variable\nBit rate                       : 160 Kbps\nMaximum bit rate               : 205 Kbps\nChannel(s)                     : 2 channels\nChannel positions              : Front: L R\nSampling rate                  : 48.0 KHz\nCompression mode               : Lossy\nDelay relative to video        : 83ms\nStream size                    : 108 MiB (15%)\nEncoded date                   : UTC 2013-09-07 04:07:22\nTagged date                    : UTC 2013-09-07 07:03:47\n\n","torrent":{"xt":"urn:btih:610e03095e267aac0c4ce9fe02d7dec0ac34efbb","amp;dn":"Song+of+the+South+++%28Family+Film+1946%29+++Ruth+Warrick%2C+Bobby+Dri","amp;tr":["udp%3A%2F%2Ftracker.openbittorrent.com%3A80","udp%3A%2F%2Fopen.demonii.com%3A1337","udp%3A%2F%2Ftracker.coppersurfer.tk%3A6969","udp%3A%2F%2Fexodus.desync.com%3A6969"],"infoHash":"610e03095e267aac0c4ce9fe02d7dec0ac34efbb","infoHashBuffer":{"type":"Buffer","data":[97,14,3,9,94,38,122,172,12,76,233,254,2,215,222,192,172,52,239,187]},"announce":[],"urlList":[]}}